<svg width="59" height="28" viewBox="0 0 59 28" fill="none" xmlns="http://www.w3.org/2000/svg">
<circle cx="13.25" cy="3" r="2.5" fill="#00FF19" stroke="black"/>
<rect x="0.5" y="7.50012" width="5" height="12" rx="2.5" stroke="black"/>
<rect x="10.7404" y="7.50012" width="5" height="12" rx="2.5" stroke="black"/>
<path d="M1.39663 8.11312C2.43875 7.20739 4.0178 7.31795 4.92353 8.36007L9.90992 14.0973C10.8157 15.1394 10.7051 16.7185 9.66297 17.6242C8.62085 18.53 7.04181 18.4194 6.13607 17.3773L1.14968 11.64C0.243948 10.5979 0.354511 9.01885 1.39663 8.11312Z" fill="#F96859" stroke="black"/>
<path d="M11.3302 8.36007C12.236 7.31795 13.815 7.20739 14.8571 8.11312C15.8992 9.01885 16.0098 10.5979 15.1041 11.64L10.1167 17.3784C9.21097 18.4205 7.63193 18.5311 6.58981 17.6253C5.54769 16.7196 5.43712 15.1406 6.34286 14.0984L11.3302 8.36007Z" fill="#FEB835" stroke="black"/>
<rect x="17.7404" y="7.5" width="5" height="12" rx="2.5" fill="#0059DF" stroke="black"/>
<rect x="24.7404" y="7.5" width="5" height="12" rx="2.5" fill="#8F00FF" stroke="black"/>
<path d="M18.496 11.7912C17.5197 10.8149 17.5197 9.23198 18.496 8.25567C19.4723 7.27936 21.0552 7.27936 22.0316 8.25567L29.009 15.2331C29.9853 16.2094 29.9853 17.7923 29.009 18.7686C28.0327 19.745 26.4498 19.745 25.4735 18.7686L18.496 11.7912Z" fill="white" stroke="black"/>
<circle cx="37.6666" cy="13.5" r="6" fill="#EB02FF" stroke="black"/>
<circle cx="33.5" cy="24.5" r="3" fill="#EB02FF" stroke="black"/>
<circle cx="51.65" cy="13.5" r="6" fill="white" stroke="black"/>
</svg>
